<svg xmlns="http://www.w3.org/2000/svg" width="1400" height="1900" viewBox="0 0 1400 1900">
<title>Mike Lantern Founder Mural v0.4</title>
<desc>Original Lantern OS founder mural schematic. Faceless fully draped armored figures, held wish door, lantern proof-ring, tesseract architecture, spectrograph evidence band, COMET LEAP arc. No likeness, no nudity, no official DND art.</desc>
<rect width="100%" height="100%" fill="#05080e"/>
<path d="M90 1480 C330 900 740 580 1220 210" fill="none" stroke="#d8a83b" stroke-width="28" stroke-opacity=".34"/>
<path d="M90 1480 C330 900 740 580 1220 210" fill="none" stroke="#fff4af" stroke-width="4" stroke-opacity=".82"/>
<circle cx="1220" cy="210" r="32" fill="#fff4af"/>
<g fill="none" stroke="#b7f2ff"><rect x="420" y="430" width="560" height="560" stroke-width="5" opacity=".78"/><rect x="515" y="335" width="560" height="560" stroke-width="3" opacity=".42"/><line x1="420" y1="430" x2="515" y2="335"/><line x1="980" y1="430" x2="1075" y2="335"/><line x1="420" y1="990" x2="515" y2="895"/><line x1="980" y1="990" x2="1075" y2="895"/></g>
<path d="M465 1325 L465 690 Q700 470 935 690 L935 1325 Z" fill="#0d2334" stroke="#d8f7ff" stroke-width="7"/>
<path d="M525 1295 L525 770 Q700 610 875 770 L875 1295 Z" fill="#050912" fill-opacity=".68" stroke="#7bdfff" stroke-opacity=".55"/>
<g id="guardians" fill="#06070b" stroke="#d6d0c0" stroke-opacity=".35"><path d="M310 625 Q160 850 275 1215 Q385 1090 440 885 Q405 710 310 625 Z"/><path d="M1090 625 Q1240 850 1125 1215 Q1015 1090 960 885 Q995 710 1090 625 Z"/></g>
<g id="mike"><ellipse cx="700" cy="1585" rx="300" ry="55" fill="#000" opacity=".45"/><path d="M575 1135 L480 1705 L920 1705 L825 1135 Q765 1210 700 1225 Q635 1210 575 1135 Z" fill="#0c0d11"/><path d="M525 900 Q610 730 700 665 Q790 730 875 900 L820 1135 Q760 1100 700 1110 Q640 1100 580 1135 Z" fill="#252b35"/><rect x="630" y="710" width="140" height="110" rx="38" fill="#040508" stroke="#aeb8bd" stroke-opacity=".35"/><line x1="655" y1="765" x2="745" y2="765" stroke="#f0d47b" stroke-width="4"/><circle cx="700" cy="1235" r="98" fill="none" stroke="#d8a83b" stroke-width="22"/></g>
<g id="spectrograph"><rect x="110" y="1630" width="1180" height="110" fill="#040508" stroke="#c8c2b3" stroke-width="3"/><rect x="145" y="1652" width="75" height="66" fill="#60dfff"/><rect x="260" y="1652" width="30" height="66" fill="#fff"/><rect x="325" y="1652" width="180" height="66" fill="#d8a83b"/><rect x="550" y="1652" width="62" height="66" fill="#a68cff"/><rect x="655" y="1652" width="250" height="66" fill="#60dfff" opacity=".72"/><rect x="955" y="1652" width="70" height="66" fill="#b94838"/><rect x="1065" y="1652" width="170" height="66" fill="#cfc7b5" opacity=".66"/></g>
<text x="700" y="82" font-family="Georgia,serif" font-size="60" text-anchor="middle" fill="#f0d47b">MIKE</text><text x="700" y="132" font-family="Arial,sans-serif" font-size="24" text-anchor="middle" fill="#cfc7b5">LANTERN FOUNDER MURAL • v0.4</text>
</svg>