<svg xmlns="http://www.w3.org/2000/svg" width="1400" height="1900" viewBox="0 0 1400 1900">
<title>Mike Lantern Door Art v0.1</title>
<desc>Original local vector art: faceless armored silhouette, lantern ring, wish door, tesseract grid, spectrograph pixels. No real-person likeness and no Canva dependency.</desc>
<rect width="100%" height="100%" fill="#060a12"/>
<g stroke="#7bdfff" stroke-opacity=".25" stroke-width="1">
<path d="M-200 0 L-600 1900"/><path d="M0 0 L-400 1900"/><path d="M200 0 L-200 1900"/><path d="M400 0 L0 1900"/><path d="M600 0 L200 1900"/><path d="M800 0 L400 1900"/><path d="M1000 0 L600 1900"/><path d="M1200 0 L800 1900"/><path d="M1400 0 L1000 1900"/><path d="M1600 0 L1200 1900"/>
</g>
<path d="M80 1450 C360 900 780 620 1230 260" fill="none" stroke="#f8d35d" stroke-width="20" stroke-opacity=".45"/>
<path d="M80 1450 C360 900 780 620 1230 260" fill="none" stroke="#ffffff" stroke-width="4" stroke-opacity=".75"/>
<circle cx="1210" cy="270" r="36" fill="#fff7b0"/>
<g fill="none" stroke="#b7f2ff">
<rect x="490" y="550" width="420" height="420" stroke-width="5"/>
<rect x="585" y="455" width="420" height="420" stroke-width="3" stroke-opacity=".6"/>
<line x1="490" y1="550" x2="585" y2="455"/><line x1="910" y1="550" x2="1005" y2="455"/><line x1="490" y1="970" x2="585" y2="875"/><line x1="910" y1="970" x2="1005" y2="875"/>
</g>
<path d="M500 1320 L500 690 Q700 500 900 690 L900 1320 Z" fill="#2e87a9" fill-opacity=".58" stroke="#d8f7ff" stroke-width="6"/>
<path d="M545 1310 L545 735 Q700 600 855 735 L855 1310 Z" fill="#050912" fill-opacity=".60"/>
<g id="mike-silhouette">
<ellipse cx="700" cy="1630" rx="300" ry="50" fill="#000" opacity=".35"/>
<path d="M575 1300 L470 1750 L930 1750 L825 1300 Q760 1375 700 1385 Q640 1375 575 1300 Z" fill="#121418"/>
<path d="M515 1150 Q610 1020 700 965 Q790 1020 885 1150 L815 1315 Q755 1280 700 1280 Q645 1280 585 1315 Z" fill="#262c36"/>
<rect x="625" y="975" width="150" height="95" rx="38" fill="#040508"/>
<circle cx="700" cy="1330" r="86" fill="none" stroke="#f8d35d" stroke-width="24"/>
<circle cx="700" cy="1330" r="45" fill="#fff7b0" opacity=".28"/>
<path d="M665 1185 L735 1185 L718 1310 L682 1310 Z" fill="#f8d35d" opacity=".75"/>
</g>
<g id="spectrograph">
<rect x="120" y="1670" width="1160" height="90" fill="#05060b" stroke="#d8d5cc" stroke-width="3"/>
<rect x="150" y="1688" width="70" height="54" fill="#7bdfff"/><rect x="250" y="1688" width="32" height="54" fill="#fff"/><rect x="320" y="1688" width="155" height="54" fill="#f8d35d"/><rect x="510" y="1688" width="55" height="54" fill="#b084ff"/><rect x="590" y="1688" width="230" height="54" fill="#38c6ff"/><rect x="860" y="1688" width="70" height="54" fill="#ff816b"/><rect x="970" y="1688" width="220" height="54" fill="#d8d5cc"/><rect x="1220" y="1688" width="100" height="54" fill="#f8d35d"/>
</g>
<text x="700" y="100" font-family="Georgia,serif" font-size="64" text-anchor="middle" fill="#fff7b0">MIKE</text>
<text x="700" y="154" font-family="Arial,sans-serif" font-size="26" text-anchor="middle" fill="#d8d5cc">LANTERN DOOR • COMET LEAP • LOCAL ART RELEASE</text>
<text x="700" y="1830" font-family="Arial,sans-serif" font-size="22" text-anchor="middle" fill="#d8d5cc">original local vector art • no likeness • wallet door still held</text>
</svg>
